<?xml version="1.0" standalone="no"?>
<!DOCTYPE svg PUBLIC "-//W3C//DTD SVG 20010904//EN"
 "http://www.w3.org/TR/2001/REC-SVG-20010904/DTD/svg10.dtd">
<svg version="1.0" xmlns="http://www.w3.org/2000/svg"
 width="700.000000pt" height="700.000000pt" viewBox="0 0 700.000000 700.000000"
 preserveAspectRatio="xMidYMid meet">
<metadata>
Created by potrace 1.11, written by Peter Selinger 2001-2013
</metadata>
<g transform="translate(0.000000,700.000000) scale(0.100000,-0.100000)"
fill="#000000" stroke="none">
<path d="M4251 6329 c-222 -24 -438 -88 -651 -196 -265 -133 -225 -97 -1388
-1257 -580 -578 -1080 -1082 -1111 -1121 -175 -214 -298 -457 -366 -730 -47
-186 -59 -309 -52 -532 6 -212 29 -341 92 -530 189 -564 637 -1008 1204 -1193
218 -71 315 -85 581 -85 258 0 325 8 524 66 143 41 276 96 395 163 223 126
211 115 1319 1220 574 573 1072 1075 1107 1116 131 157 265 393 329 581 74
220 100 382 100 624 0 106 -5 226 -13 270 -68 427 -262 803 -563 1091 -404
386 -949 571 -1507 513z m424 -404 c206 -36 415 -120 600 -243 127 -83 316
-271 402 -397 119 -177 208 -392 249 -605 27 -143 25 -419 -5 -560 -56 -263
-157 -481 -315 -675 -35 -44 -261 -276 -500 -515 l-436 -435 -1088 1088 -1087
1087 465 463 c484 481 544 534 725 632 157 86 367 152 550 174 106 13 328 6
440 -14z m-2608 -2085 c-308 -308 -486 -495 -530 -555 -310 -421 -425 -948
-313 -1445 27 -121 19 -116 -54 35 -236 483 -203 1049 88 1500 75 117 108 153
601 647 l476 478 97 -97 98 -97 -463 -466z"/>
</g>
</svg>
